# xmcd CD database file
#
# Track frame offsets:
#	150
#	13463
#	25442
#	33086
#	45129
#	54489
#	67393
#	80237
#	89829
#	100713
#	111543
#	122120
#	129674
#
# Disc length: 1892 seconds
#
# Revision: 0
# Processed by: cddbd v1.5.2PL0 Copyright (c) Steve Scherf et al.
# Submitted via: CDex 1.51
#
DISCID=bd07620d
DTITLE=Detroit Cobras - Tied and True
DYEAR=2007
DGENRE=Rhythmic Soul
TTITLE0=As Long As I Have You
TTITLE1=Nothing But A Heart Ache
TTITLE2=If You Don't Think
TTITLE3=Leave My Kitten Alone
TTITLE4=(I Wanna Know) What's Going On?
TTITLE5=Try Love
TTITLE6=You'll Never Change
TTITLE7=Puppet On A String
TTITLE8=Only To Other People
TTITLE9=The Hurt's All Gone
TTITLE10=My Delight
TTITLE11=On A Monday
TTITLE12=Green Light
EXTD=YEAR: 2007
EXTT0=
EXTT1=
EXTT2=
EXTT3=
EXTT4=
EXTT5=
EXTT6=
EXTT7=
EXTT8=
EXTT9=
EXTT10=
EXTT11=
EXTT12=
PLAYORDER=
